<svg width="165" height="32" viewBox="0 0 165 32" fill="none" xmlns="http://www.w3.org/2000/svg">
<path d="M41.232 26H45.576C50.952 26 54 23.072 54 17.84C54 12.392 51.024 9.44 45.6 9.44H41.232V26ZM43.344 24.08V11.336H45.552C49.8 11.336 51.864 13.448 51.864 17.72C51.864 22.016 49.728 24.08 45.288 24.08H43.344ZM61.4833 26.24C64.6033 26.24 66.8833 24.104 66.8833 20.192C66.8833 16.256 64.6033 14.144 61.4833 14.144C58.3393 14.144 56.1073 16.256 56.1073 20.192C56.1073 24.104 58.3393 26.24 61.4833 26.24ZM61.4833 24.488C59.4433 24.488 58.0753 23.12 58.0753 20.192C58.0753 17.264 59.4433 15.872 61.4833 15.872C63.5473 15.872 64.9153 17.264 64.9153 20.192C64.9153 23.12 63.5473 24.488 61.4833 24.488ZM74.1111 26.24C76.3191 26.24 77.9511 25.112 78.7911 23.048L77.1111 22.376C76.6071 23.6 75.5751 24.488 74.1111 24.488C71.8071 24.488 70.9671 22.256 70.9671 20.168C70.9671 18.128 71.8071 15.848 74.1351 15.848C75.4311 15.848 76.5591 16.592 77.0871 17.96L78.8151 17.24C77.9511 15.272 76.3191 14.096 74.0871 14.096C70.6791 14.096 68.9511 16.904 68.9511 20.168C68.9511 23.408 70.6791 26.24 74.1111 26.24ZM90.5886 14.288H88.5966V21.128C88.5966 22.976 87.3486 24.32 85.5006 24.32C84.0366 24.32 83.1486 23.456 83.1486 21.584V14.288H81.1326V21.92C81.1326 24.512 82.5966 26.192 85.0686 26.192C86.6046 26.192 87.7326 25.472 88.4286 24.296H88.5966V26H90.5886V14.288ZM94.2381 26H96.2301V19.136C96.2301 17.336 96.9501 15.848 98.8461 15.848C100.478 15.848 101.102 16.976 101.102 18.56V26H103.094V19.136C103.094 17.312 103.838 15.848 105.686 15.848C107.366 15.848 107.99 17.048 107.99 18.584V26H109.982V18.416C109.982 15.8 108.902 14.096 106.286 14.096C104.606 14.096 103.574 14.768 102.806 16.208H102.662C102.062 14.72 100.862 14.072 99.4701 14.072C97.9341 14.072 96.9021 14.84 96.2781 15.92H96.2061V14.288H94.2381V26ZM122.769 20.072C122.769 17.12 121.473 14.144 117.777 14.144C114.153 14.144 112.521 17.024 112.521 20.192C112.521 23.432 114.249 26.144 118.017 26.144C119.649 26.144 121.185 25.64 122.409 24.296L121.017 23.312C120.201 24.08 119.145 24.368 118.065 24.368C115.689 24.368 114.705 22.736 114.561 20.792H122.721C122.745 20.696 122.769 20.504 122.769 20.072ZM117.729 15.872C119.841 15.872 120.777 17.432 120.801 19.424H114.513C114.609 17.672 115.401 15.872 117.729 15.872ZM125.457 26H127.449V19.088C127.449 17.144 128.745 15.824 130.569 15.824C132.033 15.824 132.921 16.64 132.921 18.632V26H134.913V18.368C134.913 15.752 133.401 14.096 130.977 14.096C129.393 14.096 128.241 14.84 127.569 15.992H127.449V14.288H125.457V26ZM141.473 26H143.225V24.368H142.073C140.897 24.368 140.489 23.912 140.489 22.52V15.8H143.441V14.288H140.489V10.64H138.497V13.304C138.497 13.928 138.137 14.288 137.489 14.288H136.649V15.8H138.497V22.904C138.497 24.992 139.457 26 141.473 26ZM154.832 20.072C154.832 17.12 153.536 14.144 149.84 14.144C146.216 14.144 144.584 17.024 144.584 20.192C144.584 23.432 146.312 26.144 150.08 26.144C151.712 26.144 153.248 25.64 154.472 24.296L153.08 23.312C152.264 24.08 151.208 24.368 150.128 24.368C147.752 24.368 146.768 22.736 146.624 20.792H154.784C154.808 20.696 154.832 20.504 154.832 20.072ZM149.792 15.872C151.904 15.872 152.84 17.432 152.864 19.424H146.576C146.672 17.672 147.464 15.872 149.792 15.872ZM157.519 26H159.511V20.288C159.511 17.288 160.999 16.04 162.631 16.04C163.039 16.04 163.471 16.112 163.927 16.28V14.312C163.543 14.192 163.135 14.12 162.727 14.12C161.239 14.12 160.111 14.984 159.583 16.328H159.511V14.288H157.519V26Z" fill="black"/>
<path d="M29.9119 16.8123L28.4659 15.4949C28.0116 15.1061 27.4275 14.9071 26.8326 14.9376C26.2379 14.9684 25.677 15.2267 25.2643 15.6603L16.1269 25.8857L15.0322 32L20.9443 30.2692L30.0816 20.0368C30.485 19.5866 30.6943 18.9932 30.6637 18.3867C30.6328 17.7807 30.3646 17.2118 29.9178 16.8056L29.9119 16.8123Z" fill="#D53120"/>
<path d="M1.89649 27.1329V4.48957C1.89649 3.80639 2.16539 3.15127 2.64398 2.66831C3.12258 2.18529 3.77166 1.91391 4.44859 1.91391H21.1832C21.8601 1.91391 22.5092 2.18529 22.9878 2.66831C23.4664 3.15132 23.7353 3.8064 23.7353 4.48957V13.7702H25.6316L25.632 4.48957C25.6304 3.29923 25.1612 2.1583 24.3271 1.31653C23.4934 0.47471 22.3625 0.00121526 21.1831 0H4.4485C3.26905 0.0011868 2.13856 0.47471 1.30449 1.31653C0.470759 2.15835 0.00160552 3.29923 0 4.48957V27.1329C0.00156799 28.3233 0.470759 29.4645 1.30449 30.3059C2.13861 31.1478 3.26905 31.6213 4.4485 31.6229H12.8191V29.7087H4.4485C3.77156 29.7087 3.12244 29.4373 2.6439 28.9543C2.1653 28.4712 1.8964 27.8162 1.8964 27.133L1.89649 27.1329Z" fill="#D53120"/>
</svg>
