<svg width="25" height="24" viewBox="0 0 25 24" fill="none" xmlns="http://www.w3.org/2000/svg">
<path d="M16.0935 12.9V17.1C16.0935 20.6 14.6935 22 11.1935 22H6.99351C3.49351 22 2.09351 20.6 2.09351 17.1V12.9C2.09351 9.4 3.49351 8 6.99351 8H11.1935C14.6935 8 16.0935 9.4 16.0935 12.9Z" fill="white" stroke="#8D9091" stroke-linecap="round" stroke-linejoin="round"/>
<path d="M22.0933 6.9V11.1C22.0933 14.6 20.6933 16 17.1933 16H16.0933V12.9C16.0933 9.4 14.6933 8 11.1933 8H8.09326V6.9C8.09326 3.4 9.49326 2 12.9933 2H17.1933C20.6933 2 22.0933 3.4 22.0933 6.9Z" fill="white" stroke="#8D9091" stroke-linecap="round" stroke-linejoin="round"/>
</svg>
