<svg width="25" height="24" viewBox="0 0 25 24" fill="none" xmlns="http://www.w3.org/2000/svg">
<rect width="24" height="24" transform="translate(0.186768)" fill="white"/>
<path d="M21.1868 5.97998C17.8568 5.64998 14.5068 5.47998 11.1668 5.47998C9.18677 5.47998 7.20677 5.57998 5.22677 5.77998L3.18677 5.97998" stroke="#D53120" stroke-width="1.5" stroke-linecap="round" stroke-linejoin="round"/>
<path d="M8.68677 4.97L8.90677 3.66C9.06677 2.71 9.18677 2 10.8768 2H13.4968C15.1868 2 15.3168 2.75 15.4668 3.67L15.6868 4.97" stroke="#D53120" stroke-width="1.5" stroke-linecap="round" stroke-linejoin="round"/>
<path d="M19.0367 9.14001L18.3867 19.21C18.2767 20.78 18.1867 22 15.3967 22H8.97667C6.18667 22 6.09667 20.78 5.98667 19.21L5.33667 9.14001" stroke="#D53120" stroke-width="1.5" stroke-linecap="round" stroke-linejoin="round"/>
<path d="M10.5168 16.5H13.8468" stroke="#D53120" stroke-width="1.5" stroke-linecap="round" stroke-linejoin="round"/>
<path d="M9.68677 12.5H14.6868" stroke="#D53120" stroke-width="1.5" stroke-linecap="round" stroke-linejoin="round"/>
</svg>
