<svg width="59" height="60" viewBox="0 0 59 60" fill="none" xmlns="http://www.w3.org/2000/svg">
<path d="M2.75555 41.2147C0.905847 42.1378 0.15029 44.4104 1.31333 46.1194C3.46813 49.2858 6.20554 52.0419 9.3952 54.2398C13.6261 57.1552 18.5222 58.9985 23.6497 59.6063C28.7772 60.2142 33.9778 59.5679 38.791 57.7247C43.6041 55.8815 47.8812 52.8982 51.2433 49.0392C54.6055 45.1802 56.9489 40.5645 58.066 35.601C59.1832 30.6375 59.0395 25.4795 57.6478 20.5837C56.2561 15.6879 53.6594 11.2055 50.0875 7.53358C47.3673 4.73721 44.1456 2.47661 40.5959 0.859308C38.7437 0.0154417 36.6532 1.08893 36.0113 3.02037L32.4832 13.635C31.8327 15.592 32.9533 17.6648 34.6454 18.8437C35.2955 19.2966 35.9025 19.811 36.4572 20.3813C37.8827 21.8467 38.9191 23.6356 39.4745 25.5895C40.0299 27.5433 40.0872 29.6019 39.6414 31.5828C39.1956 33.5637 38.2603 35.4057 36.9185 36.9458C35.5767 38.4859 33.8698 39.6765 31.9489 40.4121C30.028 41.1477 27.9525 41.4057 25.9062 41.1631C23.8598 40.9205 21.9058 40.1848 20.2173 39.0213C19.545 38.558 18.923 38.0326 18.359 37.4538C16.9421 35.9994 14.7652 35.2216 12.9484 36.1282L2.75555 41.2147Z" fill="#F6BC46"/>
</svg>
