<svg width="16" height="16" viewBox="0 0 16 16" fill="none" xmlns="http://www.w3.org/2000/svg">
<path d="M14.6667 14.1667H14V10C14 6.68667 11.3134 4 8.00004 4C4.68671 4 2.00004 6.68667 2.00004 10V14.1667H1.33337C1.06004 14.1667 0.833374 14.3933 0.833374 14.6667C0.833374 14.94 1.06004 15.1667 1.33337 15.1667H14.6667C14.94 15.1667 15.1667 14.94 15.1667 14.6667C15.1667 14.3933 14.94 14.1667 14.6667 14.1667Z" fill="#071439"/>
<path d="M8 2.49992C7.72667 2.49992 7.5 2.27325 7.5 1.99992V1.33325C7.5 1.05992 7.72667 0.833252 8 0.833252C8.27333 0.833252 8.5 1.05992 8.5 1.33325V1.99992C8.5 2.27325 8.27333 2.49992 8 2.49992Z" fill="#071439"/>
<path d="M3.33333 3.83321C3.20667 3.83321 3.08 3.78655 2.98 3.68655L2.31333 3.01988C2.12 2.82655 2.12 2.50655 2.31333 2.31321C2.50667 2.11988 2.82667 2.11988 3.02 2.31321L3.68667 2.97988C3.88 3.17321 3.88 3.49321 3.68667 3.68655C3.58667 3.78655 3.46 3.83321 3.33333 3.83321Z" fill="#071439"/>
<path d="M12.6667 3.83321C12.54 3.83321 12.4133 3.78655 12.3133 3.68655C12.12 3.49321 12.12 3.17321 12.3133 2.97988L12.98 2.31321C13.1733 2.11988 13.4933 2.11988 13.6867 2.31321C13.88 2.50655 13.88 2.82655 13.6867 3.01988L13.02 3.68655C12.92 3.78655 12.7933 3.83321 12.6667 3.83321Z" fill="#071439"/>
</svg>
