<svg width="788" height="412" viewBox="0 0 788 412" fill="none" xmlns="http://www.w3.org/2000/svg">
<g clip-path="url(#clip0_75_874)">
<rect width="788" height="412" rx="8" fill="#FBFBFB"/>
<path d="M247.984 42H249.84L246.112 30.96H243.792L240.048 42H241.904L242.704 39.52H247.184L247.984 42ZM243.152 38.096L244.752 33.072C244.832 32.848 244.928 32.608 244.928 32.416H244.976C244.992 32.608 245.072 32.848 245.136 33.072L246.736 38.096H243.152ZM250.995 42H252.659V37.392C252.659 36.224 253.443 35.456 254.563 35.456C255.459 35.456 256.019 35.968 256.019 37.152V42H257.683V36.896C257.683 35.152 256.659 34.032 255.043 34.032C253.955 34.032 253.171 34.528 252.723 35.28H252.643V34.192H250.995V42ZM264.832 30.96V35.216H264.816C264.352 34.544 263.536 34.032 262.432 34.032C260.336 34.032 259.248 35.792 259.248 38.096C259.248 40.4 260.352 42.16 262.448 42.16C263.552 42.16 264.368 41.664 264.816 41.008H264.864V42H266.496V30.96H264.832ZM262.944 40.624C261.616 40.624 260.944 39.632 260.944 38.08C260.944 36.544 261.616 35.552 262.944 35.552C264.128 35.552 264.896 36.544 264.896 38.08C264.896 39.632 264.128 40.624 262.944 40.624ZM268.729 42H270.393V38.288C270.393 36.48 271.225 35.696 272.297 35.696C272.585 35.696 272.905 35.76 273.241 35.872V34.192C272.985 34.112 272.729 34.08 272.473 34.08C271.561 34.08 270.825 34.56 270.425 35.536H270.377V34.192H268.729V42ZM274.604 32.672H276.38V30.96H274.604V32.672ZM274.668 42H276.332V34.192H274.668V42ZM281.772 42.16C283.916 42.16 285.5 40.752 285.5 38.128C285.5 35.504 283.916 34.096 281.772 34.096C279.628 34.096 278.06 35.504 278.06 38.128C278.06 40.752 279.628 42.16 281.772 42.16ZM281.788 40.736C280.556 40.736 279.724 39.936 279.724 38.128C279.724 36.32 280.556 35.52 281.788 35.52C283.004 35.52 283.836 36.32 283.836 38.128C283.836 39.936 283.004 40.736 281.788 40.736ZM292.363 30.96V35.216H292.347C291.883 34.544 291.067 34.032 289.963 34.032C287.867 34.032 286.779 35.792 286.779 38.096C286.779 40.4 287.883 42.16 289.979 42.16C291.083 42.16 291.899 41.664 292.347 41.008H292.395V42H294.027V30.96H292.363ZM290.475 40.624C289.147 40.624 288.475 39.632 288.475 38.08C288.475 36.544 289.147 35.552 290.475 35.552C291.659 35.552 292.427 36.544 292.427 38.08C292.427 39.632 291.659 40.624 290.475 40.624ZM244.384 66.128C246.56 66.128 248.096 64.8 248.096 62.832C248.096 60.704 246.336 60 244.8 59.424C243.616 58.944 242.544 58.544 242.544 57.568C242.544 56.8 243.216 56.288 244.16 56.288C244.96 56.288 245.808 56.656 246.544 57.52L247.568 56.48C246.576 55.264 245.44 54.8 244.176 54.8C242.256 54.8 240.832 55.904 240.832 57.744C240.832 59.728 242.512 60.336 244 60.896C245.248 61.36 246.4 61.824 246.4 62.976C246.4 63.968 245.6 64.56 244.432 64.56C243.28 64.56 242.144 63.952 242.112 62.528H240.4C240.384 64.88 242.288 66.128 244.384 66.128ZM250.048 66H253.104C256.752 66 258.8 64.032 258.8 60.528C258.8 56.96 256.816 54.96 253.12 54.96H250.048V66ZM251.776 64.432V56.528H253.088C255.76 56.528 257.056 57.84 257.056 60.464C257.056 63.12 255.696 64.432 252.912 64.432H251.776ZM264.671 60L269.295 54.976H267.103L262.511 60.128V54.976H260.783V66H262.511V60.72H263.151L267.423 66H269.743L264.671 60Z" fill="#8D9091"/>
<path d="M346.392 42H348.12V30.96H346.392V42ZM353.788 42.16C355.932 42.16 357.516 40.752 357.516 38.128C357.516 35.504 355.932 34.096 353.788 34.096C351.644 34.096 350.076 35.504 350.076 38.128C350.076 40.752 351.644 42.16 353.788 42.16ZM353.804 40.736C352.572 40.736 351.74 39.936 351.74 38.128C351.74 36.32 352.572 35.52 353.804 35.52C355.02 35.52 355.852 36.32 355.852 38.128C355.852 39.936 355.02 40.736 353.804 40.736ZM361.934 42.16C363.662 42.16 365.022 41.264 365.022 39.632C365.022 38.128 363.726 37.664 362.478 37.36C361.438 37.088 360.27 36.864 360.366 36.16C360.414 35.616 361.086 35.28 361.934 35.344C362.862 35.408 363.486 35.856 363.902 36.368L364.718 35.376C364.174 34.704 363.198 34.064 361.79 34.064C360.222 34.064 358.83 34.816 358.83 36.4C358.83 37.936 360.206 38.352 361.47 38.64C362.542 38.88 363.39 39.056 363.39 39.792C363.39 40.512 362.574 40.784 361.726 40.752C360.622 40.72 359.87 40.112 359.502 39.552L358.558 40.64C359.134 41.488 360.526 42.16 361.934 42.16ZM373.525 42.128C375.701 42.128 377.237 40.8 377.237 38.832C377.237 36.704 375.477 36 373.941 35.424C372.757 34.944 371.685 34.544 371.685 33.568C371.685 32.8 372.357 32.288 373.301 32.288C374.101 32.288 374.949 32.656 375.685 33.52L376.709 32.48C375.717 31.264 374.581 30.8 373.317 30.8C371.397 30.8 369.973 31.904 369.973 33.744C369.973 35.728 371.653 36.336 373.141 36.896C374.389 37.36 375.541 37.824 375.541 38.976C375.541 39.968 374.741 40.56 373.573 40.56C372.421 40.56 371.285 39.952 371.253 38.528H369.541C369.525 40.88 371.429 42.128 373.525 42.128ZM379.189 42H382.245C385.893 42 387.941 40.032 387.941 36.528C387.941 32.96 385.957 30.96 382.261 30.96H379.189V42ZM380.917 40.432V32.528H382.229C384.901 32.528 386.197 33.84 386.197 36.464C386.197 39.12 384.837 40.432 382.053 40.432H380.917ZM393.811 36L398.435 30.976H396.243L391.651 36.128V30.976H389.923V42H391.651V36.72H392.291L396.563 42H398.883L393.811 36Z" fill="#8D9091"/>
<path d="M450.392 42.016H452.12V37.248H454.104L456.456 42.016H458.504L455.864 37.024C457.208 36.608 458.072 35.616 458.072 34.096C458.072 32.16 456.6 30.96 454.504 30.96H450.392V42.016ZM452.136 35.744V32.528H454.52C455.704 32.528 456.376 33.136 456.376 34.16C456.376 35.12 455.8 35.696 454.68 35.744H452.136ZM466.272 37.936C466.272 35.872 465.168 34.096 462.848 34.096C460.496 34.096 459.232 35.888 459.232 38.16C459.232 40.432 460.528 42.096 462.928 42.096C464.192 42.096 465.312 41.632 466.096 40.608L464.8 39.968C464.304 40.464 463.664 40.656 462.992 40.656C461.616 40.656 461.024 39.744 460.928 38.56H466.224C466.256 38.432 466.272 38.192 466.272 37.936ZM462.816 35.504C464.08 35.504 464.64 36.416 464.624 37.568H460.928C460.96 36.544 461.44 35.504 462.816 35.504ZM469.981 42.16C471.117 42.16 471.949 41.712 472.557 40.896H472.589L472.797 42H474.285L474.125 40.896V36.544C474.125 34.832 472.653 34.064 470.957 34.064C469.485 34.064 468.269 34.704 467.517 35.68L468.701 36.576C469.213 35.888 470.157 35.456 471.021 35.456C471.949 35.456 472.541 35.824 472.541 36.416C472.541 37.024 471.933 37.28 471.197 37.456C470.525 37.6 469.677 37.696 468.989 37.936C468.077 38.24 467.405 38.816 467.405 39.952C467.405 41.328 468.429 42.16 469.981 42.16ZM470.445 40.832C469.661 40.832 469.165 40.432 469.165 39.824C469.165 39.28 469.549 39.04 470.013 38.88C470.685 38.624 471.837 38.576 472.557 37.968H472.621V38.608C472.621 40.336 471.389 40.832 470.445 40.832ZM479.316 42.16C480.868 42.16 481.988 41.376 482.548 39.92L481.14 39.376C480.852 40.144 480.228 40.688 479.316 40.688C477.94 40.688 477.412 39.44 477.412 38.128C477.412 36.8 477.94 35.536 479.332 35.536C480.116 35.536 480.804 35.952 481.14 36.848L482.596 36.272C482.004 34.896 480.9 34.064 479.3 34.064C476.916 34.064 475.716 35.92 475.716 38.112C475.716 40.288 476.916 42.16 479.316 42.16ZM486.36 42H487.8V40.672H486.968C486.328 40.672 486.088 40.416 486.088 39.632V35.376H487.88V34.192H486.088V31.776H484.424V33.424C484.424 33.92 484.168 34.192 483.656 34.192H483.176V35.376H484.424V39.968C484.424 41.296 485.08 42 486.36 42Z" fill="#8D9091"/>
<path d="M540.208 40.4V42C540.624 42.128 541.248 42.16 541.584 42.16C543.904 42.16 544.96 40.672 544.96 38.416V30.976H543.216V38.176C543.216 39.616 542.784 40.592 541.424 40.592C541.088 40.592 540.72 40.528 540.208 40.4ZM549.153 42.16C550.289 42.16 551.121 41.712 551.729 40.896H551.761L551.969 42H553.457L553.297 40.896V36.544C553.297 34.832 551.825 34.064 550.129 34.064C548.657 34.064 547.441 34.704 546.689 35.68L547.873 36.576C548.385 35.888 549.329 35.456 550.193 35.456C551.121 35.456 551.713 35.824 551.713 36.416C551.713 37.024 551.105 37.28 550.369 37.456C549.697 37.6 548.849 37.696 548.161 37.936C547.249 38.24 546.577 38.816 546.577 39.952C546.577 41.328 547.601 42.16 549.153 42.16ZM549.617 40.832C548.833 40.832 548.337 40.432 548.337 39.824C548.337 39.28 548.721 39.04 549.185 38.88C549.857 38.624 551.009 38.576 551.729 37.968H551.793V38.608C551.793 40.336 550.561 40.832 549.617 40.832ZM559.805 34.192L557.933 40.72L556.077 34.192H554.269L556.877 42H558.989L561.597 34.192H559.805ZM564.934 42.16C566.07 42.16 566.902 41.712 567.51 40.896H567.542L567.75 42H569.238L569.078 40.896V36.544C569.078 34.832 567.606 34.064 565.91 34.064C564.438 34.064 563.222 34.704 562.47 35.68L563.654 36.576C564.166 35.888 565.11 35.456 565.974 35.456C566.902 35.456 567.494 35.824 567.494 36.416C567.494 37.024 566.886 37.28 566.15 37.456C565.478 37.6 564.63 37.696 563.942 37.936C563.03 38.24 562.358 38.816 562.358 39.952C562.358 41.328 563.382 42.16 564.934 42.16ZM565.398 40.832C564.614 40.832 564.118 40.432 564.118 39.824C564.118 39.28 564.502 39.04 564.966 38.88C565.638 38.624 566.79 38.576 567.51 37.968H567.574V38.608C567.574 40.336 566.342 40.832 565.398 40.832ZM573.965 42.16C575.693 42.16 577.053 41.264 577.053 39.632C577.053 38.128 575.757 37.664 574.509 37.36C573.469 37.088 572.301 36.864 572.397 36.16C572.445 35.616 573.117 35.28 573.965 35.344C574.893 35.408 575.517 35.856 575.933 36.368L576.749 35.376C576.205 34.704 575.229 34.064 573.821 34.064C572.253 34.064 570.861 34.816 570.861 36.4C570.861 37.936 572.237 38.352 573.501 38.64C574.573 38.88 575.421 39.056 575.421 39.792C575.421 40.512 574.605 40.784 573.757 40.752C572.653 40.72 571.901 40.112 571.533 39.552L570.589 40.64C571.165 41.488 572.557 42.16 573.965 42.16ZM581.754 42.16C583.306 42.16 584.426 41.376 584.986 39.92L583.578 39.376C583.29 40.144 582.666 40.688 581.754 40.688C580.378 40.688 579.85 39.44 579.85 38.128C579.85 36.8 580.378 35.536 581.77 35.536C582.554 35.536 583.242 35.952 583.578 36.848L585.034 36.272C584.442 34.896 583.338 34.064 581.738 34.064C579.354 34.064 578.154 35.92 578.154 38.112C578.154 40.288 579.354 42.16 581.754 42.16ZM586.558 42H588.222V38.288C588.222 36.48 589.054 35.696 590.126 35.696C590.414 35.696 590.734 35.76 591.07 35.872V34.192C590.814 34.112 590.558 34.08 590.302 34.08C589.39 34.08 588.654 34.56 588.254 35.536H588.206V34.192H586.558V42ZM592.433 32.672H594.209V30.96H592.433V32.672ZM592.497 42H594.161V34.192H592.497V42ZM596.448 44.608H598.08V40.688L598.096 40.816C598.432 41.584 599.296 42.16 600.496 42.16C602.464 42.16 603.68 40.4 603.68 38.096C603.68 35.792 602.48 34.032 600.512 34.032C599.376 34.032 598.496 34.56 598.096 35.328V34.192H596.448V44.608ZM600 40.656C598.8 40.656 598.032 39.664 598.032 38.08C598.032 36.512 598.8 35.504 600 35.504C601.216 35.504 602 36.512 602 38.08C602 39.648 601.216 40.656 600 40.656ZM607.594 42H609.034V40.672H608.202C607.562 40.672 607.322 40.416 607.322 39.632V35.376H609.114V34.192H607.322V31.776H605.658V33.424C605.658 33.92 605.402 34.192 604.89 34.192H604.41V35.376H605.658V39.968C605.658 41.296 606.314 42 607.594 42Z" fill="#8D9091"/>
<path d="M670.392 42.016H672.12V37.248H674.104L676.456 42.016H678.504L675.864 37.024C677.208 36.608 678.072 35.616 678.072 34.096C678.072 32.16 676.6 30.96 674.504 30.96H670.392V42.016ZM672.136 35.744V32.528H674.52C675.704 32.528 676.376 33.136 676.376 34.16C676.376 35.12 675.8 35.696 674.68 35.744H672.136ZM686.272 37.936C686.272 35.872 685.168 34.096 682.848 34.096C680.496 34.096 679.232 35.888 679.232 38.16C679.232 40.432 680.528 42.096 682.928 42.096C684.192 42.096 685.312 41.632 686.096 40.608L684.8 39.968C684.304 40.464 683.664 40.656 682.992 40.656C681.616 40.656 681.024 39.744 680.928 38.56H686.224C686.256 38.432 686.272 38.192 686.272 37.936ZM682.816 35.504C684.08 35.504 684.64 36.416 684.624 37.568H680.928C680.96 36.544 681.44 35.504 682.816 35.504ZM689.981 42.16C691.117 42.16 691.949 41.712 692.557 40.896H692.589L692.797 42H694.285L694.125 40.896V36.544C694.125 34.832 692.653 34.064 690.957 34.064C689.485 34.064 688.269 34.704 687.517 35.68L688.701 36.576C689.213 35.888 690.157 35.456 691.021 35.456C691.949 35.456 692.541 35.824 692.541 36.416C692.541 37.024 691.933 37.28 691.197 37.456C690.525 37.6 689.677 37.696 688.989 37.936C688.077 38.24 687.405 38.816 687.405 39.952C687.405 41.328 688.429 42.16 689.981 42.16ZM690.445 40.832C689.661 40.832 689.165 40.432 689.165 39.824C689.165 39.28 689.549 39.04 690.013 38.88C690.685 38.624 691.837 38.576 692.557 37.968H692.621V38.608C692.621 40.336 691.389 40.832 690.445 40.832ZM699.316 42.16C700.868 42.16 701.988 41.376 702.548 39.92L701.14 39.376C700.852 40.144 700.228 40.688 699.316 40.688C697.94 40.688 697.412 39.44 697.412 38.128C697.412 36.8 697.94 35.536 699.332 35.536C700.116 35.536 700.804 35.952 701.14 36.848L702.596 36.272C702.004 34.896 700.9 34.064 699.3 34.064C696.916 34.064 695.716 35.92 695.716 38.112C695.716 40.288 696.916 42.16 699.316 42.16ZM706.36 42H707.8V40.672H706.968C706.328 40.672 706.088 40.416 706.088 39.632V35.376H707.88V34.192H706.088V31.776H704.424V33.424C704.424 33.92 704.168 34.192 703.656 34.192H703.176V35.376H704.424V39.968C704.424 41.296 705.08 42 706.36 42ZM670.12 66H671.784V61.392C671.784 60.224 672.568 59.456 673.688 59.456C674.584 59.456 675.144 59.968 675.144 61.152V66H676.808V60.896C676.808 59.152 675.784 58.032 674.168 58.032C673.08 58.032 672.296 58.528 671.848 59.28H671.768V58.192H670.12V66ZM680.997 66.16C682.133 66.16 682.965 65.712 683.573 64.896H683.605L683.813 66H685.301L685.141 64.896V60.544C685.141 58.832 683.669 58.064 681.973 58.064C680.501 58.064 679.285 58.704 678.533 59.68L679.717 60.576C680.229 59.888 681.173 59.456 682.036 59.456C682.965 59.456 683.557 59.824 683.557 60.416C683.557 61.024 682.949 61.28 682.213 61.456C681.541 61.6 680.693 61.696 680.005 61.936C679.093 62.24 678.421 62.816 678.421 63.952C678.421 65.328 679.445 66.16 680.997 66.16ZM681.461 64.832C680.677 64.832 680.181 64.432 680.181 63.824C680.181 63.28 680.565 63.04 681.029 62.88C681.701 62.624 682.853 62.576 683.573 61.968H683.637V62.608C683.637 64.336 682.405 64.832 681.461 64.832ZM689.485 66H690.925V64.672H690.093C689.453 64.672 689.213 64.416 689.213 63.632V59.376H691.005V58.192H689.213V55.776H687.549V57.424C687.549 57.92 687.293 58.192 686.781 58.192H686.301V59.376H687.549V63.968C687.549 65.296 688.205 66 689.485 66ZM692.511 56.672H694.287V54.96H692.511V56.672ZM692.575 66H694.239V58.192H692.575V66ZM701.102 58.192L699.23 64.72L697.374 58.192H695.566L698.174 66H700.286L702.894 58.192H701.102ZM710.584 61.936C710.584 59.872 709.48 58.096 707.16 58.096C704.808 58.096 703.544 59.888 703.544 62.16C703.544 64.432 704.84 66.096 707.24 66.096C708.504 66.096 709.624 65.632 710.408 64.608L709.112 63.968C708.616 64.464 707.976 64.656 707.304 64.656C705.928 64.656 705.336 63.744 705.24 62.56H710.536C710.568 62.432 710.584 62.192 710.584 61.936ZM707.128 59.504C708.392 59.504 708.952 60.416 708.936 61.568H705.24C705.272 60.544 705.752 59.504 707.128 59.504ZM719.15 66.128C721.326 66.128 722.862 64.8 722.862 62.832C722.862 60.704 721.102 60 719.566 59.424C718.382 58.944 717.31 58.544 717.31 57.568C717.31 56.8 717.982 56.288 718.926 56.288C719.726 56.288 720.574 56.656 721.31 57.52L722.334 56.48C721.342 55.264 720.206 54.8 718.942 54.8C717.022 54.8 715.598 55.904 715.598 57.744C715.598 59.728 717.278 60.336 718.766 60.896C720.014 61.36 721.166 61.824 721.166 62.976C721.166 63.968 720.366 64.56 719.198 64.56C718.046 64.56 716.91 63.952 716.878 62.528H715.166C715.15 64.88 717.054 66.128 719.15 66.128ZM724.814 66H727.87C731.518 66 733.566 64.032 733.566 60.528C733.566 56.96 731.582 54.96 727.886 54.96H724.814V66ZM726.542 64.432V56.528H727.854C730.526 56.528 731.822 57.84 731.822 60.464C731.822 63.12 730.462 64.432 727.678 64.432H726.542ZM739.436 60L744.06 54.976H741.868L737.276 60.128V54.976H735.548V66H737.276V60.72H737.916L742.188 66H744.508L739.436 60Z" fill="#8D9091"/>
<path d="M31.984 106H33.84L30.112 94.96H27.792L24.048 106H25.904L26.704 103.52H31.184L31.984 106ZM27.152 102.096L28.752 97.072C28.832 96.848 28.928 96.608 28.928 96.416H28.976C28.992 96.608 29.072 96.848 29.136 97.072L30.736 102.096H27.152ZM39.2898 98.192L37.4178 104.72L35.5618 98.192H33.7538L36.3618 106H38.4738L41.0818 98.192H39.2898ZM44.4184 106.16C45.5544 106.16 46.3864 105.712 46.9944 104.896H47.0264L47.2344 106H48.7224L48.5624 104.896V100.544C48.5624 98.832 47.0904 98.064 45.3944 98.064C43.9224 98.064 42.7064 98.704 41.9544 99.68L43.1384 100.576C43.6504 99.888 44.5944 99.456 45.4584 99.456C46.3864 99.456 46.9784 99.824 46.9784 100.416C46.9784 101.024 46.3704 101.28 45.6344 101.456C44.9624 101.6 44.1144 101.696 43.4264 101.936C42.5144 102.24 41.8424 102.816 41.8424 103.952C41.8424 105.328 42.8664 106.16 44.4184 106.16ZM44.8824 104.832C44.0984 104.832 43.6024 104.432 43.6024 103.824C43.6024 103.28 43.9864 103.04 44.4504 102.88C45.1224 102.624 46.2744 102.576 46.9944 101.968H47.0584V102.608C47.0584 104.336 45.8264 104.832 44.8824 104.832ZM50.7138 96.672H52.4898V94.96H50.7138V96.672ZM50.7778 106H52.4418V98.192H50.7778V106ZM54.7454 106H56.4254V94.96H54.7454V106ZM60.7465 106.16C61.8825 106.16 62.7145 105.712 63.3225 104.896H63.3545L63.5625 106H65.0505L64.8905 104.896V100.544C64.8905 98.832 63.4185 98.064 61.7225 98.064C60.2505 98.064 59.0345 98.704 58.2825 99.68L59.4665 100.576C59.9785 99.888 60.9225 99.456 61.7865 99.456C62.7145 99.456 63.3065 99.824 63.3065 100.416C63.3065 101.024 62.6985 101.28 61.9625 101.456C61.2905 101.6 60.4425 101.696 59.7545 101.936C58.8425 102.24 58.1705 102.816 58.1705 103.952C58.1705 105.328 59.1945 106.16 60.7465 106.16ZM61.2105 104.832C60.4265 104.832 59.9305 104.432 59.9305 103.824C59.9305 103.28 60.3145 103.04 60.7785 102.88C61.4505 102.624 62.6025 102.576 63.3225 101.968H63.3865V102.608C63.3865 104.336 62.1545 104.832 61.2105 104.832ZM71.1059 98.032C70.0019 98.032 69.1859 98.544 68.7219 99.216H68.7059V94.96H67.0419V106H68.6739V105.008H68.7219C69.1699 105.664 69.9859 106.16 71.0899 106.16C73.1859 106.16 74.2899 104.4 74.2899 102.096C74.2899 99.792 73.2019 98.032 71.1059 98.032ZM70.5939 104.624C69.4099 104.624 68.6419 103.632 68.6419 102.08C68.6419 100.544 69.4099 99.552 70.5939 99.552C71.9219 99.552 72.5939 100.544 72.5939 102.08C72.5939 103.632 71.9219 104.624 70.5939 104.624ZM75.9798 106H77.6598V94.96H75.9798V106ZM86.3969 101.936C86.3969 99.872 85.2929 98.096 82.9729 98.096C80.6209 98.096 79.3569 99.888 79.3569 102.16C79.3569 104.432 80.6529 106.096 83.0529 106.096C84.3169 106.096 85.4369 105.632 86.2209 104.608L84.9249 103.968C84.4289 104.464 83.7889 104.656 83.1169 104.656C81.7409 104.656 81.1489 103.744 81.0529 102.56H86.3489C86.3809 102.432 86.3969 102.192 86.3969 101.936ZM82.9409 99.504C84.2049 99.504 84.7649 100.416 84.7489 101.568H81.0529C81.0849 100.544 81.5649 99.504 82.9409 99.504ZM94.7381 106.16C96.2901 106.16 97.4101 105.376 97.9701 103.92L96.5621 103.376C96.2741 104.144 95.6501 104.688 94.7381 104.688C93.3621 104.688 92.8341 103.44 92.8341 102.128C92.8341 100.8 93.3621 99.536 94.7541 99.536C95.5381 99.536 96.2261 99.952 96.5621 100.848L98.0181 100.272C97.4261 98.896 96.3221 98.064 94.7221 98.064C92.3381 98.064 91.1381 99.92 91.1381 102.112C91.1381 104.288 92.3381 106.16 94.7381 106.16ZM102.694 106.16C104.838 106.16 106.422 104.752 106.422 102.128C106.422 99.504 104.838 98.096 102.694 98.096C100.55 98.096 98.9819 99.504 98.9819 102.128C98.9819 104.752 100.55 106.16 102.694 106.16ZM102.71 104.736C101.478 104.736 100.646 103.936 100.646 102.128C100.646 100.32 101.478 99.52 102.71 99.52C103.926 99.52 104.758 100.32 104.758 102.128C104.758 103.936 103.926 104.736 102.71 104.736ZM114.744 98.192H113.08V102.72C113.08 103.808 112.36 104.608 111.224 104.608C110.296 104.608 109.72 104.064 109.72 102.96V98.192H108.056V103.296C108.056 104.992 109.016 106.16 110.696 106.16C111.704 106.16 112.504 105.712 112.984 104.912H113.096V106H114.744V98.192ZM116.979 106H118.643V101.392C118.643 100.224 119.427 99.456 120.547 99.456C121.443 99.456 122.003 99.968 122.003 101.152V106H123.667V100.896C123.667 99.152 122.643 98.032 121.027 98.032C119.939 98.032 119.155 98.528 118.707 99.28H118.627V98.192H116.979V106ZM127.891 106H129.331V104.672H128.499C127.859 104.672 127.619 104.416 127.619 103.632V99.376H129.411V98.192H127.619V95.776H125.955V97.424C125.955 97.92 125.699 98.192 125.187 98.192H124.707V99.376H125.955V103.968C125.955 105.296 126.611 106 127.891 106ZM130.917 106H132.581V102.288C132.581 100.48 133.413 99.696 134.485 99.696C134.773 99.696 135.093 99.76 135.429 99.872V98.192C135.173 98.112 134.917 98.08 134.661 98.08C133.749 98.08 133.013 98.56 132.613 99.536H132.565V98.192H130.917V106ZM136.341 108.608H137.813C138.837 108.608 139.509 108.096 139.877 107.04L143.045 98.192H141.253L139.701 102.976C139.589 103.328 139.477 103.84 139.477 104.144H139.381C139.381 103.824 139.269 103.328 139.157 102.992L137.621 98.192H135.813L138.661 105.744L138.357 106.592C138.197 107.024 137.877 107.2 137.381 107.2H136.341V108.608Z" fill="#8D9091"/>
<path d="M28.384 178.128C30.56 178.128 32.096 176.8 32.096 174.832C32.096 172.704 30.336 172 28.8 171.424C27.616 170.944 26.544 170.544 26.544 169.568C26.544 168.8 27.216 168.288 28.16 168.288C28.96 168.288 29.808 168.656 30.544 169.52L31.568 168.48C30.576 167.264 29.44 166.8 28.176 166.8C26.256 166.8 24.832 167.904 24.832 169.744C24.832 171.728 26.512 172.336 28 172.896C29.248 173.36 30.4 173.824 30.4 174.976C30.4 175.968 29.6 176.56 28.432 176.56C27.28 176.56 26.144 175.952 26.112 174.528H24.4C24.384 176.88 26.288 178.128 28.384 178.128ZM40.4163 170.192H38.7523V174.72C38.7523 175.808 38.0323 176.608 36.8963 176.608C35.9683 176.608 35.3923 176.064 35.3923 174.96V170.192H33.7283V175.296C33.7283 176.992 34.6883 178.16 36.3683 178.16C37.3763 178.16 38.1763 177.712 38.6563 176.912H38.7683V178H40.4163V170.192ZM42.6513 180.608H44.2833V176.688L44.2993 176.816C44.6353 177.584 45.4993 178.16 46.6993 178.16C48.6673 178.16 49.8833 176.4 49.8833 174.096C49.8833 171.792 48.6833 170.032 46.7153 170.032C45.5793 170.032 44.6993 170.56 44.2993 171.328V170.192H42.6513V180.608ZM46.2033 176.656C45.0033 176.656 44.2353 175.664 44.2353 174.08C44.2353 172.512 45.0033 171.504 46.2033 171.504C47.4193 171.504 48.2033 172.512 48.2033 174.08C48.2033 175.648 47.4193 176.656 46.2033 176.656ZM51.5575 180.608H53.1895V176.688L53.2055 176.816C53.5415 177.584 54.4055 178.16 55.6055 178.16C57.5735 178.16 58.7895 176.4 58.7895 174.096C58.7895 171.792 57.5895 170.032 55.6215 170.032C54.4855 170.032 53.6055 170.56 53.2055 171.328V170.192H51.5575V180.608ZM55.1095 176.656C53.9095 176.656 53.1415 175.664 53.1415 174.08C53.1415 172.512 53.9095 171.504 55.1095 171.504C56.3255 171.504 57.1095 172.512 57.1095 174.08C57.1095 175.648 56.3255 176.656 55.1095 176.656ZM63.772 178.16C65.916 178.16 67.5 176.752 67.5 174.128C67.5 171.504 65.916 170.096 63.772 170.096C61.628 170.096 60.06 171.504 60.06 174.128C60.06 176.752 61.628 178.16 63.772 178.16ZM63.788 176.736C62.556 176.736 61.724 175.936 61.724 174.128C61.724 172.32 62.556 171.52 63.788 171.52C65.004 171.52 65.836 172.32 65.836 174.128C65.836 175.936 65.004 176.736 63.788 176.736ZM69.1825 178H70.8465V174.288C70.8465 172.48 71.6785 171.696 72.7505 171.696C73.0385 171.696 73.3585 171.76 73.6945 171.872V170.192C73.4385 170.112 73.1825 170.08 72.9265 170.08C72.0145 170.08 71.2785 170.56 70.8785 171.536H70.8305V170.192H69.1825V178ZM77.485 178H78.925V176.672H78.093C77.453 176.672 77.213 176.416 77.213 175.632V171.376H79.005V170.192H77.213V167.776H75.549V169.424C75.549 169.92 75.293 170.192 74.781 170.192H74.301V171.376H75.549V175.968C75.549 177.296 76.205 178 77.485 178ZM84.6309 178H86.2949V171.376H88.1349V170.192H86.2949V169.28C86.2949 168.688 86.6149 168.288 87.2229 168.288H88.1349V166.96H87.0629C85.4789 166.96 84.6309 167.84 84.6309 169.328V170.192H83.2069V171.376H84.6309V178ZM92.3658 178.16C94.5098 178.16 96.0938 176.752 96.0938 174.128C96.0938 171.504 94.5098 170.096 92.3658 170.096C90.2218 170.096 88.6538 171.504 88.6538 174.128C88.6538 176.752 90.2218 178.16 92.3658 178.16ZM92.3818 176.736C91.1498 176.736 90.3178 175.936 90.3178 174.128C90.3178 172.32 91.1498 171.52 92.3818 171.52C93.5978 171.52 94.4298 172.32 94.4298 174.128C94.4298 175.936 93.5978 176.736 92.3818 176.736ZM97.7763 178H99.4403V174.288C99.4403 172.48 100.272 171.696 101.344 171.696C101.632 171.696 101.952 171.76 102.288 171.872V170.192C102.032 170.112 101.776 170.08 101.52 170.08C100.608 170.08 99.8723 170.56 99.4723 171.536H99.4243V170.192H97.7763V178ZM111.372 170.032C110.268 170.032 109.452 170.544 108.988 171.216H108.972V166.96H107.308V178H108.94V177.008H108.988C109.436 177.664 110.252 178.16 111.356 178.16C113.452 178.16 114.556 176.4 114.556 174.096C114.556 171.792 113.468 170.032 111.372 170.032ZM110.86 176.624C109.676 176.624 108.908 175.632 108.908 174.08C108.908 172.544 109.676 171.552 110.86 171.552C112.188 171.552 112.86 172.544 112.86 174.08C112.86 175.632 112.188 176.624 110.86 176.624ZM116.245 178H117.925V166.96H116.245V178ZM126.823 170.192H125.159V174.72C125.159 175.808 124.439 176.608 123.303 176.608C122.375 176.608 121.799 176.064 121.799 174.96V170.192H120.135V175.296C120.135 176.992 121.095 178.16 122.775 178.16C123.783 178.16 124.583 177.712 125.063 176.912H125.175V178H126.823V170.192ZM135.538 173.936C135.538 171.872 134.434 170.096 132.114 170.096C129.762 170.096 128.498 171.888 128.498 174.16C128.498 176.432 129.794 178.096 132.194 178.096C133.458 178.096 134.578 177.632 135.362 176.608L134.066 175.968C133.57 176.464 132.93 176.656 132.258 176.656C130.882 176.656 130.289 175.744 130.194 174.56H135.49C135.522 174.432 135.538 174.192 135.538 173.936ZM132.082 171.504C133.346 171.504 133.906 172.416 133.89 173.568H130.194C130.226 172.544 130.706 171.504 132.082 171.504ZM139.344 178H140.784V176.672H139.952C139.312 176.672 139.072 176.416 139.072 175.632V171.376H140.864V170.192H139.072V167.776H137.408V169.424C137.408 169.92 137.152 170.192 136.64 170.192H136.16V171.376H137.408V175.968C137.408 177.296 138.064 178 139.344 178ZM145.272 178.16C147.416 178.16 149 176.752 149 174.128C149 171.504 147.416 170.096 145.272 170.096C143.128 170.096 141.56 171.504 141.56 174.128C141.56 176.752 143.128 178.16 145.272 178.16ZM145.288 176.736C144.056 176.736 143.224 175.936 143.224 174.128C143.224 172.32 144.056 171.52 145.288 171.52C146.504 171.52 147.336 172.32 147.336 174.128C147.336 175.936 146.504 176.736 145.288 176.736ZM153.991 178.16C156.135 178.16 157.719 176.752 157.719 174.128C157.719 171.504 156.135 170.096 153.991 170.096C151.847 170.096 150.279 171.504 150.279 174.128C150.279 176.752 151.847 178.16 153.991 178.16ZM154.007 176.736C152.775 176.736 151.943 175.936 151.943 174.128C151.943 172.32 152.775 171.52 154.007 171.52C155.223 171.52 156.055 172.32 156.055 174.128C156.055 175.936 155.223 176.736 154.007 176.736ZM161.563 178H163.003V176.672H162.171C161.531 176.672 161.291 176.416 161.291 175.632V171.376H163.083V170.192H161.291V167.776H159.627V169.424C159.627 169.92 159.371 170.192 158.859 170.192H158.379V171.376H159.627V175.968C159.627 177.296 160.283 178 161.563 178ZM164.589 178H166.253V173.392C166.253 172.304 166.973 171.488 168.077 171.488C169.053 171.488 169.613 172.048 169.613 173.152V178H171.277V172.896C171.277 171.2 170.317 170.032 168.653 170.032C167.613 170.032 166.813 170.48 166.333 171.28H166.253V166.96H164.589V178Z" fill="#8D9091"/>
<path d="M28.384 250.128C30.56 250.128 32.096 248.8 32.096 246.832C32.096 244.704 30.336 244 28.8 243.424C27.616 242.944 26.544 242.544 26.544 241.568C26.544 240.8 27.216 240.288 28.16 240.288C28.96 240.288 29.808 240.656 30.544 241.52L31.568 240.48C30.576 239.264 29.44 238.8 28.176 238.8C26.256 238.8 24.832 239.904 24.832 241.744C24.832 243.728 26.512 244.336 28 244.896C29.248 245.36 30.4 245.824 30.4 246.976C30.4 247.968 29.6 248.56 28.432 248.56C27.28 248.56 26.144 247.952 26.112 246.528H24.4C24.384 248.88 26.288 250.128 28.384 250.128ZM40.4163 242.192H38.7523V246.72C38.7523 247.808 38.0323 248.608 36.8963 248.608C35.9683 248.608 35.3923 248.064 35.3923 246.96V242.192H33.7283V247.296C33.7283 248.992 34.6883 250.16 36.3683 250.16C37.3763 250.16 38.1763 249.712 38.6563 248.912H38.7683V250H40.4163V242.192ZM42.6513 252.608H44.2833V248.688L44.2993 248.816C44.6353 249.584 45.4993 250.16 46.6993 250.16C48.6673 250.16 49.8833 248.4 49.8833 246.096C49.8833 243.792 48.6833 242.032 46.7153 242.032C45.5793 242.032 44.6993 242.56 44.2993 243.328V242.192H42.6513V252.608ZM46.2033 248.656C45.0033 248.656 44.2353 247.664 44.2353 246.08C44.2353 244.512 45.0033 243.504 46.2033 243.504C47.4193 243.504 48.2033 244.512 48.2033 246.08C48.2033 247.648 47.4193 248.656 46.2033 248.656ZM51.5575 252.608H53.1895V248.688L53.2055 248.816C53.5415 249.584 54.4055 250.16 55.6055 250.16C57.5735 250.16 58.7895 248.4 58.7895 246.096C58.7895 243.792 57.5895 242.032 55.6215 242.032C54.4855 242.032 53.6055 242.56 53.2055 243.328V242.192H51.5575V252.608ZM55.1095 248.656C53.9095 248.656 53.1415 247.664 53.1415 246.08C53.1415 244.512 53.9095 243.504 55.1095 243.504C56.3255 243.504 57.1095 244.512 57.1095 246.08C57.1095 247.648 56.3255 248.656 55.1095 248.656ZM63.772 250.16C65.916 250.16 67.5 248.752 67.5 246.128C67.5 243.504 65.916 242.096 63.772 242.096C61.628 242.096 60.06 243.504 60.06 246.128C60.06 248.752 61.628 250.16 63.772 250.16ZM63.788 248.736C62.556 248.736 61.724 247.936 61.724 246.128C61.724 244.32 62.556 243.52 63.788 243.52C65.004 243.52 65.836 244.32 65.836 246.128C65.836 247.936 65.004 248.736 63.788 248.736ZM69.1825 250H70.8465V246.288C70.8465 244.48 71.6785 243.696 72.7505 243.696C73.0385 243.696 73.3585 243.76 73.6945 243.872V242.192C73.4385 242.112 73.1825 242.08 72.9265 242.08C72.0145 242.08 71.2785 242.56 70.8785 243.536H70.8305V242.192H69.1825V250ZM77.485 250H78.925V248.672H78.093C77.453 248.672 77.213 248.416 77.213 247.632V243.376H79.005V242.192H77.213V239.776H75.549V241.424C75.549 241.92 75.293 242.192 74.781 242.192H74.301V243.376H75.549V247.968C75.549 249.296 76.205 250 77.485 250ZM84.6309 250H86.2949V243.376H88.1349V242.192H86.2949V241.28C86.2949 240.688 86.6149 240.288 87.2229 240.288H88.1349V238.96H87.0629C85.4789 238.96 84.6309 239.84 84.6309 241.328V242.192H83.2069V243.376H84.6309V250ZM92.3658 250.16C94.5098 250.16 96.0938 248.752 96.0938 246.128C96.0938 243.504 94.5098 242.096 92.3658 242.096C90.2218 242.096 88.6538 243.504 88.6538 246.128C88.6538 248.752 90.2218 250.16 92.3658 250.16ZM92.3818 248.736C91.1498 248.736 90.3178 247.936 90.3178 246.128C90.3178 244.32 91.1498 243.52 92.3818 243.52C93.5978 243.52 94.4298 244.32 94.4298 246.128C94.4298 247.936 93.5978 248.736 92.3818 248.736ZM97.7763 250H99.4403V246.288C99.4403 244.48 100.272 243.696 101.344 243.696C101.632 243.696 101.952 243.76 102.288 243.872V242.192C102.032 242.112 101.776 242.08 101.52 242.08C100.608 242.08 99.8723 242.56 99.4723 243.536H99.4243V242.192H97.7763V250ZM110.044 250.16C111.772 250.16 113.132 249.264 113.132 247.632C113.132 246.128 111.836 245.664 110.588 245.36C109.548 245.088 108.38 244.864 108.476 244.16C108.524 243.616 109.196 243.28 110.044 243.344C110.972 243.408 111.596 243.856 112.012 244.368L112.828 243.376C112.284 242.704 111.308 242.064 109.9 242.064C108.332 242.064 106.94 242.816 106.94 244.4C106.94 245.936 108.316 246.352 109.58 246.64C110.652 246.88 111.5 247.056 111.5 247.792C111.5 248.512 110.684 248.784 109.836 248.752C108.732 248.72 107.98 248.112 107.612 247.552L106.668 248.64C107.243 249.488 108.636 250.16 110.044 250.16ZM114.714 250H116.378V245.456C116.378 244.368 116.81 243.504 117.93 243.504C118.906 243.504 119.29 244.176 119.29 245.136V250H120.954V245.456C120.954 244.352 121.402 243.504 122.49 243.504C123.482 243.504 123.882 244.224 123.882 245.152V250H125.546V244.976C125.546 243.232 124.778 242.064 123.034 242.064C121.93 242.064 121.258 242.528 120.746 243.44H120.65C120.234 242.496 119.498 242.048 118.538 242.048C117.514 242.048 116.81 242.56 116.41 243.264H116.362V242.192H114.714V250ZM129.731 250.16C130.867 250.16 131.699 249.712 132.307 248.896H132.339L132.547 250H134.035L133.875 248.896V244.544C133.875 242.832 132.403 242.064 130.707 242.064C129.235 242.064 128.019 242.704 127.267 243.68L128.451 244.576C128.963 243.888 129.907 243.456 130.771 243.456C131.699 243.456 132.291 243.824 132.291 244.416C132.291 245.024 131.683 245.28 130.947 245.456C130.275 245.6 129.427 245.696 128.739 245.936C127.827 246.24 127.155 246.816 127.155 247.952C127.155 249.328 128.179 250.16 129.731 250.16ZM130.195 248.832C129.411 248.832 128.915 248.432 128.915 247.824C128.915 247.28 129.299 247.04 129.763 246.88C130.435 246.624 131.587 246.576 132.307 245.968H132.371V246.608C132.371 248.336 131.139 248.832 130.195 248.832ZM136.026 250H137.69V246.288C137.69 244.48 138.522 243.696 139.594 243.696C139.882 243.696 140.202 243.76 140.538 243.872V242.192C140.282 242.112 140.026 242.08 139.77 242.08C138.858 242.08 138.122 242.56 137.722 243.536H137.674V242.192H136.026V250ZM144.329 250H145.769V248.672H144.937C144.297 248.672 144.057 248.416 144.057 247.632V243.376H145.849V242.192H144.057V239.776H142.393V241.424C142.393 241.92 142.137 242.192 141.625 242.192H141.145V243.376H142.393V247.968C142.393 249.296 143.049 250 144.329 250ZM25.12 274H26.784V270.288C26.784 268.48 27.616 267.696 28.688 267.696C28.976 267.696 29.296 267.76 29.632 267.872V266.192C29.376 266.112 29.12 266.08 28.864 266.08C27.952 266.08 27.216 266.56 26.816 267.536H26.768V266.192H25.12V274ZM37.3188 269.936C37.3188 267.872 36.2148 266.096 33.8948 266.096C31.5428 266.096 30.2788 267.888 30.2788 270.16C30.2788 272.432 31.5748 274.096 33.9748 274.096C35.2388 274.096 36.3588 273.632 37.1428 272.608L35.8468 271.968C35.3508 272.464 34.7108 272.656 34.0388 272.656C32.6628 272.656 32.0707 271.744 31.9748 270.56H37.2708C37.3028 270.432 37.3188 270.192 37.3188 269.936ZM33.8628 267.504C35.1268 267.504 35.6868 268.416 35.6708 269.568H31.9748C32.0068 268.544 32.4868 267.504 33.8628 267.504ZM41.0278 274.16C42.1638 274.16 42.9958 273.712 43.6038 272.896H43.6358L43.8438 274H45.3318L45.1718 272.896V268.544C45.1718 266.832 43.6998 266.064 42.0038 266.064C40.5318 266.064 39.3158 266.704 38.5638 267.68L39.7478 268.576C40.2598 267.888 41.2038 267.456 42.0677 267.456C42.9958 267.456 43.5878 267.824 43.5878 268.416C43.5878 269.024 42.9798 269.28 42.2438 269.456C41.5718 269.6 40.7238 269.696 40.0358 269.936C39.1238 270.24 38.4518 270.816 38.4518 271.952C38.4518 273.328 39.4758 274.16 41.0278 274.16ZM41.4918 272.832C40.7078 272.832 40.2118 272.432 40.2118 271.824C40.2118 271.28 40.5958 271.04 41.0598 270.88C41.7318 270.624 42.8838 270.576 43.6038 269.968H43.6678V270.608C43.6678 272.336 42.4358 272.832 41.4918 272.832ZM52.3471 262.96V267.216H52.3311C51.8671 266.544 51.0511 266.032 49.9471 266.032C47.8511 266.032 46.7631 267.792 46.7631 270.096C46.7631 272.4 47.8671 274.16 49.9631 274.16C51.0671 274.16 51.8831 273.664 52.3311 273.008H52.3791V274H54.0111V262.96H52.3471ZM50.4591 272.624C49.1311 272.624 48.4591 271.632 48.4591 270.08C48.4591 268.544 49.1311 267.552 50.4591 267.552C51.6431 267.552 52.4111 268.544 52.4111 270.08C52.4111 271.632 51.6431 272.624 50.4591 272.624ZM62.725 269.936C62.725 267.872 61.621 266.096 59.301 266.096C56.949 266.096 55.685 267.888 55.685 270.16C55.685 272.432 56.981 274.096 59.381 274.096C60.645 274.096 61.765 273.632 62.549 272.608L61.253 271.968C60.757 272.464 60.117 272.656 59.445 272.656C58.069 272.656 57.477 271.744 57.381 270.56H62.677C62.709 270.432 62.725 270.192 62.725 269.936ZM59.269 267.504C60.533 267.504 61.093 268.416 61.077 269.568H57.381C57.413 268.544 57.893 267.504 59.269 267.504ZM64.37 274H66.034V270.288C66.034 268.48 66.866 267.696 67.938 267.696C68.226 267.696 68.546 267.76 68.882 267.872V266.192C68.626 266.112 68.37 266.08 68.114 266.08C67.202 266.08 66.466 266.56 66.066 267.536H66.018V266.192H64.37V274ZM72.7935 274.16C74.5215 274.16 75.8815 273.264 75.8815 271.632C75.8815 270.128 74.5855 269.664 73.3375 269.36C72.2975 269.088 71.1295 268.864 71.2255 268.16C71.2735 267.616 71.9455 267.28 72.7935 267.344C73.7215 267.408 74.3455 267.856 74.7615 268.368L75.5775 267.376C75.0335 266.704 74.0575 266.064 72.6495 266.064C71.0815 266.064 69.6895 266.816 69.6895 268.4C69.6895 269.936 71.0655 270.352 72.3295 270.64C73.4015 270.88 74.2495 271.056 74.2495 271.792C74.2495 272.512 73.4335 272.784 72.5855 272.752C71.4815 272.72 70.7295 272.112 70.3615 271.552L69.4175 272.64C69.9935 273.488 71.3855 274.16 72.7935 274.16Z" fill="#8D9091"/>
<path d="M25.392 346H28.448C32.096 346 34.144 344.032 34.144 340.528C34.144 336.96 32.16 334.96 28.464 334.96H25.392V346ZM27.12 344.432V336.528H28.432C31.104 336.528 32.4 337.84 32.4 340.464C32.4 343.12 31.04 344.432 28.256 344.432H27.12ZM42.475 341.936C42.475 339.872 41.371 338.096 39.051 338.096C36.699 338.096 35.435 339.888 35.435 342.16C35.435 344.432 36.731 346.096 39.131 346.096C40.395 346.096 41.515 345.632 42.299 344.608L41.003 343.968C40.507 344.464 39.867 344.656 39.195 344.656C37.819 344.656 37.227 343.744 37.131 342.56H42.427C42.459 342.432 42.475 342.192 42.475 341.936ZM39.019 339.504C40.283 339.504 40.843 340.416 40.827 341.568H37.131C37.163 340.544 37.643 339.504 39.019 339.504ZM46.856 346.16C48.584 346.16 49.944 345.264 49.944 343.632C49.944 342.128 48.648 341.664 47.4 341.36C46.36 341.088 45.192 340.864 45.288 340.16C45.336 339.616 46.008 339.28 46.856 339.344C47.784 339.408 48.408 339.856 48.824 340.368L49.64 339.376C49.096 338.704 48.12 338.064 46.712 338.064C45.144 338.064 43.752 338.816 43.752 340.4C43.752 341.936 45.128 342.352 46.392 342.64C47.464 342.88 48.312 343.056 48.312 343.792C48.312 344.512 47.496 344.784 46.648 344.752C45.544 344.72 44.792 344.112 44.424 343.552L43.48 344.64C44.056 345.488 45.448 346.16 46.856 346.16ZM54.6444 346.16C56.1964 346.16 57.3164 345.376 57.8764 343.92L56.4684 343.376C56.1804 344.144 55.5564 344.688 54.6444 344.688C53.2684 344.688 52.7404 343.44 52.7404 342.128C52.7404 340.8 53.2684 339.536 54.6604 339.536C55.4444 339.536 56.1324 339.952 56.4684 340.848L57.9244 340.272C57.3324 338.896 56.2284 338.064 54.6284 338.064C52.2444 338.064 51.0444 339.92 51.0444 342.112C51.0444 344.288 52.2444 346.16 54.6444 346.16ZM59.4481 346H61.1121V342.288C61.1121 340.48 61.9441 339.696 63.0161 339.696C63.3041 339.696 63.6241 339.76 63.9601 339.872V338.192C63.7041 338.112 63.4481 338.08 63.1921 338.08C62.2801 338.08 61.5441 338.56 61.1441 339.536H61.0961V338.192H59.4481V346ZM65.3231 336.672H67.0991V334.96H65.3231V336.672ZM65.3871 346H67.0511V338.192H65.3871V346ZM69.3388 348.608H70.9708V344.688L70.9868 344.816C71.3228 345.584 72.1868 346.16 73.3868 346.16C75.3548 346.16 76.5708 344.4 76.5708 342.096C76.5708 339.792 75.3708 338.032 73.4028 338.032C72.2668 338.032 71.3868 338.56 70.9868 339.328V338.192H69.3388V348.608ZM72.8908 344.656C71.6908 344.656 70.9228 343.664 70.9228 342.08C70.9228 340.512 71.6908 339.504 72.8908 339.504C74.1068 339.504 74.8908 340.512 74.8908 342.08C74.8908 343.648 74.1068 344.656 72.8908 344.656ZM80.485 346H81.925V344.672H81.093C80.453 344.672 80.213 344.416 80.213 343.632V339.376H82.005V338.192H80.213V335.776H78.549V337.424C78.549 337.92 78.293 338.192 77.781 338.192H77.301V339.376H78.549V343.968C78.549 345.296 79.205 346 80.485 346ZM83.5106 336.672H85.2866V334.96H83.5106V336.672ZM83.5746 346H85.2386V338.192H83.5746V346ZM90.6783 346.16C92.8223 346.16 94.4062 344.752 94.4062 342.128C94.4062 339.504 92.8223 338.096 90.6783 338.096C88.5343 338.096 86.9663 339.504 86.9663 342.128C86.9663 344.752 88.5343 346.16 90.6783 346.16ZM90.6943 344.736C89.4623 344.736 88.6303 343.936 88.6303 342.128C88.6303 340.32 89.4623 339.52 90.6943 339.52C91.9103 339.52 92.7423 340.32 92.7423 342.128C92.7423 343.936 91.9103 344.736 90.6943 344.736ZM96.0888 346H97.7528V341.392C97.7528 340.224 98.5368 339.456 99.6568 339.456C100.553 339.456 101.113 339.968 101.113 341.152V346H102.777V340.896C102.777 339.152 101.753 338.032 100.137 338.032C99.0488 338.032 98.2648 338.528 97.8168 339.28H97.7368V338.192H96.0888V346Z" fill="#8D9091"/>
<path d="M25.392 418H28.448C32.096 418 34.144 416.032 34.144 412.528C34.144 408.96 32.16 406.96 28.464 406.96H25.392V418ZM27.12 416.432V408.528H28.432C31.104 408.528 32.4 409.84 32.4 412.464C32.4 415.12 31.04 416.432 28.256 416.432H27.12ZM42.475 413.936C42.475 411.872 41.371 410.096 39.051 410.096C36.699 410.096 35.435 411.888 35.435 414.16C35.435 416.432 36.731 418.096 39.131 418.096C40.395 418.096 41.515 417.632 42.299 416.608L41.003 415.968C40.507 416.464 39.867 416.656 39.195 416.656C37.819 416.656 37.227 415.744 37.131 414.56H42.427C42.459 414.432 42.475 414.192 42.475 413.936ZM39.019 411.504C40.283 411.504 40.843 412.416 40.827 413.568H37.131C37.163 412.544 37.643 411.504 39.019 411.504ZM46.856 418.16C48.584 418.16 49.944 417.264 49.944 415.632C49.944 414.128 48.648 413.664 47.4 413.36C46.36 413.088 45.192 412.864 45.288 412.16C45.336 411.616 46.008 411.28 46.856 411.344C47.784 411.408 48.408 411.856 48.824 412.368L49.64 411.376C49.096 410.704 48.12 410.064 46.712 410.064C45.144 410.064 43.752 410.816 43.752 412.4C43.752 413.936 45.128 414.352 46.392 414.64C47.464 414.88 48.312 415.056 48.312 415.792C48.312 416.512 47.496 416.784 46.648 416.752C45.544 416.72 44.792 416.112 44.424 415.552L43.48 416.64C44.056 417.488 45.448 418.16 46.856 418.16ZM54.6444 418.16C56.1964 418.16 57.3164 417.376 57.8764 415.92L56.4684 415.376C56.1804 416.144 55.5564 416.688 54.6444 416.688C53.2684 416.688 52.7404 415.44 52.7404 414.128C52.7404 412.8 53.2684 411.536 54.6604 411.536C55.4444 411.536 56.1324 411.952 56.4684 412.848L57.9244 412.272C57.3324 410.896 56.2284 410.064 54.6284 410.064C52.2444 410.064 51.0444 411.92 51.0444 414.112C51.0444 416.288 52.2444 418.16 54.6444 418.16ZM59.4481 418H61.1121V414.288C61.1121 412.48 61.9441 411.696 63.0161 411.696C63.3041 411.696 63.6241 411.76 63.9601 411.872V410.192C63.7041 410.112 63.4481 410.08 63.1921 410.08C62.2801 410.08 61.5441 410.56 61.1441 411.536H61.0961V410.192H59.4481V418ZM65.3231 408.672H67.0991V406.96H65.3231V408.672ZM65.3871 418H67.0511V410.192H65.3871V418ZM69.3388 420.608H70.9708V416.688L70.9868 416.816C71.3228 417.584 72.1868 418.16 73.3868 418.16C75.3548 418.16 76.5708 416.4 76.5708 414.096C76.5708 411.792 75.3708 410.032 73.4028 410.032C72.2668 410.032 71.3868 410.56 70.9868 411.328V410.192H69.3388V420.608ZM72.8908 416.656C71.6908 416.656 70.9228 415.664 70.9228 414.08C70.9228 412.512 71.6908 411.504 72.8908 411.504C74.1068 411.504 74.8908 412.512 74.8908 414.08C74.8908 415.648 74.1068 416.656 72.8908 416.656ZM80.485 418H81.925V416.672H81.093C80.453 416.672 80.213 416.416 80.213 415.632V411.376H82.005V410.192H80.213V407.776H78.549V409.424C78.549 409.92 78.293 410.192 77.781 410.192H77.301V411.376H78.549V415.968C78.549 417.296 79.205 418 80.485 418ZM83.5106 408.672H85.2866V406.96H83.5106V408.672ZM83.5746 418H85.2386V410.192H83.5746V418ZM90.6783 418.16C92.8223 418.16 94.4062 416.752 94.4062 414.128C94.4062 411.504 92.8223 410.096 90.6783 410.096C88.5343 410.096 86.9663 411.504 86.9663 414.128C86.9663 416.752 88.5343 418.16 90.6783 418.16ZM90.6943 416.736C89.4623 416.736 88.6303 415.936 88.6303 414.128C88.6303 412.32 89.4623 411.52 90.6943 411.52C91.9103 411.52 92.7423 412.32 92.7423 414.128C92.7423 415.936 91.9103 416.736 90.6943 416.736ZM96.0888 418H97.7528V413.392C97.7528 412.224 98.5368 411.456 99.6568 411.456C100.553 411.456 101.113 411.968 101.113 413.152V418H102.777V412.896C102.777 411.152 101.753 410.032 100.137 410.032C99.0488 410.032 98.2648 410.528 97.8168 411.28H97.7368V410.192H96.0888V418Z" fill="#8D9091"/>
<line x1="216.5" y1="-2.18557e-08" x2="216.5" y2="412" stroke="#EFEFEF"/>
<line x1="321.5" y1="-2.18557e-08" x2="321.5" y2="412" stroke="#EFEFEF"/>
<line x1="425.5" y1="-2.18557e-08" x2="425.5" y2="412" stroke="#EFEFEF"/>
<line x1="351.5" y1="-2.18557e-08" x2="351.5" y2="24" stroke="#EFEFEF"/>
<line x1="516.5" y1="-2.18557e-08" x2="516.5" y2="412" stroke="#EFEFEF"/>
<line x1="645.5" y1="-2.18557e-08" x2="645.5" y2="412" stroke="#EFEFEF"/>
<rect x="777" y="108" width="3" height="167" rx="1.5" fill="#CCCCCC"/>
<path d="M269 90C263.49 90 259 94.49 259 100C259 105.51 263.49 110 269 110C274.51 110 279 105.51 279 100C279 94.49 274.51 90 269 90ZM273.78 97.7L268.11 103.37C267.97 103.51 267.78 103.59 267.58 103.59C267.38 103.59 267.19 103.51 267.05 103.37L264.22 100.54C263.93 100.25 263.93 99.77 264.22 99.48C264.51 99.19 264.99 99.19 265.28 99.48L267.58 101.78L272.72 96.64C273.01 96.35 273.49 96.35 273.78 96.64C274.07 96.93 274.07 97.4 273.78 97.7Z" fill="#15AE73"/>
<path d="M373 92C367.49 92 363 96.49 363 102C363 107.51 367.49 112 373 112C378.51 112 383 107.51 383 102C383 96.49 378.51 92 373 92ZM377.78 99.7L372.11 105.37C371.97 105.51 371.78 105.59 371.58 105.59C371.38 105.59 371.19 105.51 371.05 105.37L368.22 102.54C367.93 102.25 367.93 101.77 368.22 101.48C368.51 101.19 368.99 101.19 369.28 101.48L371.58 103.78L376.72 98.64C377.01 98.35 377.49 98.35 377.78 98.64C378.07 98.93 378.07 99.4 377.78 99.7Z" fill="#15AE73"/>
<path d="M373 162C367.49 162 363 166.49 363 172C363 177.51 367.49 182 373 182C378.51 182 383 177.51 383 172C383 166.49 378.51 162 373 162ZM377.78 169.7L372.11 175.37C371.97 175.51 371.78 175.59 371.58 175.59C371.38 175.59 371.19 175.51 371.05 175.37L368.22 172.54C367.93 172.25 367.93 171.77 368.22 171.48C368.51 171.19 368.99 171.19 369.28 171.48L371.58 173.78L376.72 168.64C377.01 168.35 377.49 168.35 377.78 168.64C378.07 168.93 378.07 169.4 377.78 169.7Z" fill="#15AE73"/>
<path d="M373 236C367.49 236 363 240.49 363 246C363 251.51 367.49 256 373 256C378.51 256 383 251.51 383 246C383 240.49 378.51 236 373 236ZM377.78 243.7L372.11 249.37C371.97 249.51 371.78 249.59 371.58 249.59C371.38 249.59 371.19 249.51 371.05 249.37L368.22 246.54C367.93 246.25 367.93 245.77 368.22 245.48C368.51 245.19 368.99 245.19 369.28 245.48L371.58 247.78L376.72 242.64C377.01 242.35 377.49 242.35 377.78 242.64C378.07 242.93 378.07 243.4 377.78 243.7Z" fill="#15AE73"/>
<path d="M471 90C465.49 90 461 94.49 461 100C461 105.51 465.49 110 471 110C476.51 110 481 105.51 481 100C481 94.49 476.51 90 471 90ZM475.78 97.7L470.11 103.37C469.97 103.51 469.78 103.59 469.58 103.59C469.38 103.59 469.19 103.51 469.05 103.37L466.22 100.54C465.93 100.25 465.93 99.77 466.22 99.48C466.51 99.19 466.99 99.19 467.28 99.48L469.58 101.78L474.72 96.64C475.01 96.35 475.49 96.35 475.78 96.64C476.07 96.93 476.07 97.4 475.78 97.7Z" fill="#15AE73"/>
<path d="M581 88C575.49 88 571 92.49 571 98C571 103.51 575.49 108 581 108C586.51 108 591 103.51 591 98C591 92.49 586.51 88 581 88ZM585.78 95.7L580.11 101.37C579.97 101.51 579.78 101.59 579.58 101.59C579.38 101.59 579.19 101.51 579.05 101.37L576.22 98.54C575.93 98.25 575.93 97.77 576.22 97.48C576.51 97.19 576.99 97.19 577.28 97.48L579.58 99.78L584.72 94.64C585.01 94.35 585.49 94.35 585.78 94.64C586.07 94.93 586.07 95.4 585.78 95.7Z" fill="#15AE73"/>
<path d="M581 331C575.49 331 571 335.49 571 341C571 346.51 575.49 351 581 351C586.51 351 591 346.51 591 341C591 335.49 586.51 331 581 331ZM585.78 338.7L580.11 344.37C579.97 344.51 579.78 344.59 579.58 344.59C579.38 344.59 579.19 344.51 579.05 344.37L576.22 341.54C575.93 341.25 575.93 340.77 576.22 340.48C576.51 340.19 576.99 340.19 577.28 340.48L579.58 342.78L584.72 337.64C585.01 337.35 585.49 337.35 585.78 337.64C586.07 337.93 586.07 338.4 585.78 338.7Z" fill="#15AE73"/>
<path d="M710 86C704.49 86 700 90.49 700 96C700 101.51 704.49 106 710 106C715.51 106 720 101.51 720 96C720 90.49 715.51 86 710 86ZM714.78 93.7L709.11 99.37C708.97 99.51 708.78 99.59 708.58 99.59C708.38 99.59 708.19 99.51 708.05 99.37L705.22 96.54C704.93 96.25 704.93 95.77 705.22 95.48C705.51 95.19 705.99 95.19 706.28 95.48L708.58 97.78L713.72 92.64C714.01 92.35 714.49 92.35 714.78 92.64C715.07 92.93 715.07 93.4 714.78 93.7Z" fill="#15AE73"/>
<path d="M710 329C704.49 329 700 333.49 700 339C700 344.51 704.49 349 710 349C715.51 349 720 344.51 720 339C720 333.49 715.51 329 710 329ZM714.78 336.7L709.11 342.37C708.97 342.51 708.78 342.59 708.58 342.59C708.38 342.59 708.19 342.51 708.05 342.37L705.22 339.54C704.93 339.25 704.93 338.77 705.22 338.48C705.51 338.19 705.99 338.19 706.28 338.48L708.58 340.78L713.72 335.64C714.01 335.35 714.49 335.35 714.78 335.64C715.07 335.93 715.07 336.4 714.78 336.7Z" fill="#15AE73"/>
<path d="M710 162C704.49 162 700 166.49 700 172C700 177.51 704.49 182 710 182C715.51 182 720 177.51 720 172C720 166.49 715.51 162 710 162ZM714.78 169.7L709.11 175.37C708.97 175.51 708.78 175.59 708.58 175.59C708.38 175.59 708.19 175.51 708.05 175.37L705.22 172.54C704.93 172.25 704.93 171.77 705.22 171.48C705.51 171.19 705.99 171.19 706.28 171.48L708.58 173.78L713.72 168.64C714.01 168.35 714.49 168.35 714.78 168.64C715.07 168.93 715.07 169.4 714.78 169.7Z" fill="#15AE73"/>
<path d="M710 236C704.49 236 700 240.49 700 246C700 251.51 704.49 256 710 256C715.51 256 720 251.51 720 246C720 240.49 715.51 236 710 236ZM714.78 243.7L709.11 249.37C708.97 249.51 708.78 249.59 708.58 249.59C708.38 249.59 708.19 249.51 708.05 249.37L705.22 246.54C704.93 246.25 704.93 245.77 705.22 245.48C705.51 245.19 705.99 245.19 706.28 245.48L708.58 247.78L713.72 242.64C714.01 242.35 714.49 242.35 714.78 242.64C715.07 242.93 715.07 243.4 714.78 243.7Z" fill="#15AE73"/>
<path d="M269 162C263.49 162 259 166.49 259 172C259 177.51 263.49 182 269 182C274.51 182 279 177.51 279 172C279 166.49 274.51 162 269 162ZM268.25 168C268.25 167.59 268.59 167.25 269 167.25C269.41 167.25 269.75 167.59 269.75 168V173C269.75 173.41 269.41 173.75 269 173.75C268.59 173.75 268.25 173.41 268.25 173V168ZM269.92 176.38C269.87 176.51 269.8 176.61 269.71 176.71C269.61 176.8 269.5 176.87 269.38 176.92C269.26 176.97 269.13 177 269 177C268.87 177 268.74 176.97 268.62 176.92C268.5 176.87 268.39 176.8 268.29 176.71C268.2 176.61 268.13 176.51 268.08 176.38C268.03 176.26 268 176.13 268 176C268 175.87 268.03 175.74 268.08 175.62C268.13 175.5 268.2 175.39 268.29 175.29C268.39 175.2 268.5 175.13 268.62 175.08C268.86 174.98 269.14 174.98 269.38 175.08C269.5 175.13 269.61 175.2 269.71 175.29C269.8 175.39 269.87 175.5 269.92 175.62C269.97 175.74 270 175.87 270 176C270 176.13 269.97 176.26 269.92 176.38Z" fill="#D53120"/>
<path d="M471 162C465.49 162 461 166.49 461 172C461 177.51 465.49 182 471 182C476.51 182 481 177.51 481 172C481 166.49 476.51 162 471 162ZM470.25 168C470.25 167.59 470.59 167.25 471 167.25C471.41 167.25 471.75 167.59 471.75 168V173C471.75 173.41 471.41 173.75 471 173.75C470.59 173.75 470.25 173.41 470.25 173V168ZM471.92 176.38C471.87 176.51 471.8 176.61 471.71 176.71C471.61 176.8 471.5 176.87 471.38 176.92C471.26 176.97 471.13 177 471 177C470.87 177 470.74 176.97 470.62 176.92C470.5 176.87 470.39 176.8 470.29 176.71C470.2 176.61 470.13 176.51 470.08 176.38C470.03 176.26 470 176.13 470 176C470 175.87 470.03 175.74 470.08 175.62C470.13 175.5 470.2 175.39 470.29 175.29C470.39 175.2 470.5 175.13 470.62 175.08C470.86 174.98 471.14 174.98 471.38 175.08C471.5 175.13 471.61 175.2 471.71 175.29C471.8 175.39 471.87 175.5 471.92 175.62C471.97 175.74 472 175.87 472 176C472 176.13 471.97 176.26 471.92 176.38Z" fill="#D53120"/>
<path d="M471 236C465.49 236 461 240.49 461 246C461 251.51 465.49 256 471 256C476.51 256 481 251.51 481 246C481 240.49 476.51 236 471 236ZM470.25 242C470.25 241.59 470.59 241.25 471 241.25C471.41 241.25 471.75 241.59 471.75 242V247C471.75 247.41 471.41 247.75 471 247.75C470.59 247.75 470.25 247.41 470.25 247V242ZM471.92 250.38C471.87 250.51 471.8 250.61 471.71 250.71C471.61 250.8 471.5 250.87 471.38 250.92C471.26 250.97 471.13 251 471 251C470.87 251 470.74 250.97 470.62 250.92C470.5 250.87 470.39 250.8 470.29 250.71C470.2 250.61 470.13 250.51 470.08 250.38C470.03 250.26 470 250.13 470 250C470 249.87 470.03 249.74 470.08 249.62C470.13 249.5 470.2 249.39 470.29 249.29C470.39 249.2 470.5 249.13 470.62 249.08C470.86 248.98 471.14 248.98 471.38 249.08C471.5 249.13 471.61 249.2 471.71 249.29C471.8 249.39 471.87 249.5 471.92 249.62C471.97 249.74 472 249.87 472 250C472 250.13 471.97 250.26 471.92 250.38Z" fill="#D53120"/>
<path d="M581 162C575.49 162 571 166.49 571 172C571 177.51 575.49 182 581 182C586.51 182 591 177.51 591 172C591 166.49 586.51 162 581 162ZM580.25 168C580.25 167.59 580.59 167.25 581 167.25C581.41 167.25 581.75 167.59 581.75 168V173C581.75 173.41 581.41 173.75 581 173.75C580.59 173.75 580.25 173.41 580.25 173V168ZM581.92 176.38C581.87 176.51 581.8 176.61 581.71 176.71C581.61 176.8 581.5 176.87 581.38 176.92C581.26 176.97 581.13 177 581 177C580.87 177 580.74 176.97 580.62 176.92C580.5 176.87 580.39 176.8 580.29 176.71C580.2 176.61 580.13 176.51 580.08 176.38C580.03 176.26 580 176.13 580 176C580 175.87 580.03 175.74 580.08 175.62C580.13 175.5 580.2 175.39 580.29 175.29C580.39 175.2 580.5 175.13 580.62 175.08C580.86 174.98 581.14 174.98 581.38 175.08C581.5 175.13 581.61 175.2 581.71 175.29C581.8 175.39 581.87 175.5 581.92 175.62C581.97 175.74 582 175.87 582 176C582 176.13 581.97 176.26 581.92 176.38Z" fill="#D53120"/>
<path d="M581 236C575.49 236 571 240.49 571 246C571 251.51 575.49 256 581 256C586.51 256 591 251.51 591 246C591 240.49 586.51 236 581 236ZM580.25 242C580.25 241.59 580.59 241.25 581 241.25C581.41 241.25 581.75 241.59 581.75 242V247C581.75 247.41 581.41 247.75 581 247.75C580.59 247.75 580.25 247.41 580.25 247V242ZM581.92 250.38C581.87 250.51 581.8 250.61 581.71 250.71C581.61 250.8 581.5 250.87 581.38 250.92C581.26 250.97 581.13 251 581 251C580.87 251 580.74 250.97 580.62 250.92C580.5 250.87 580.39 250.8 580.29 250.71C580.2 250.61 580.13 250.51 580.08 250.38C580.03 250.26 580 250.13 580 250C580 249.87 580.03 249.74 580.08 249.62C580.13 249.5 580.2 249.39 580.29 249.29C580.39 249.2 580.5 249.13 580.62 249.08C580.86 248.98 581.14 248.98 581.38 249.08C581.5 249.13 581.61 249.2 581.71 249.29C581.8 249.39 581.87 249.5 581.92 249.62C581.97 249.74 582 249.87 582 250C582 250.13 581.97 250.26 581.92 250.38Z" fill="#D53120"/>
<path d="M248.36 250.16C251 250.16 252.456 248.592 252.456 245.92V238.96H250.728V246.064C250.728 247.632 249.832 248.576 248.36 248.576C246.872 248.576 245.992 247.632 245.992 246.064V238.96H244.264V246C244.264 248.608 245.704 250.16 248.36 250.16ZM257.575 250.16C259.303 250.16 260.663 249.264 260.663 247.632C260.663 246.128 259.367 245.664 258.119 245.36C257.079 245.088 255.911 244.864 256.007 244.16C256.055 243.616 256.727 243.28 257.575 243.344C258.503 243.408 259.127 243.856 259.543 244.368L260.359 243.376C259.815 242.704 258.839 242.064 257.431 242.064C255.863 242.064 254.471 242.816 254.471 244.4C254.471 245.936 255.847 246.352 257.111 246.64C258.183 246.88 259.031 247.056 259.031 247.792C259.031 248.512 258.215 248.784 257.367 248.752C256.263 248.72 255.511 248.112 255.143 247.552L254.199 248.64C254.775 249.488 256.167 250.16 257.575 250.16ZM269.053 250.16C271.197 250.16 272.781 248.752 272.781 246.128C272.781 243.504 271.197 242.096 269.053 242.096C266.909 242.096 265.341 243.504 265.341 246.128C265.341 248.752 266.909 250.16 269.053 250.16ZM269.069 248.736C267.837 248.736 267.005 247.936 267.005 246.128C267.005 244.32 267.837 243.52 269.069 243.52C270.285 243.52 271.117 244.32 271.117 246.128C271.117 247.936 270.285 248.736 269.069 248.736ZM274.464 250H276.128V245.392C276.128 244.224 276.912 243.456 278.032 243.456C278.928 243.456 279.488 243.968 279.488 245.152V250H281.152V244.896C281.152 243.152 280.128 242.032 278.512 242.032C277.424 242.032 276.64 242.528 276.192 243.28H276.112V242.192H274.464V250ZM283.292 250H284.972V238.96H283.292V250ZM286.669 252.608H288.141C289.165 252.608 289.837 252.096 290.205 251.04L293.373 242.192H291.581L290.029 246.976C289.917 247.328 289.805 247.84 289.805 248.144H289.709C289.709 247.824 289.597 247.328 289.485 246.992L287.949 242.192H286.141L288.989 249.744L288.685 250.592C288.525 251.024 288.205 251.2 287.709 251.2H286.669V252.608Z" fill="#8D9091"/>
<path d="M248.36 346.16C251 346.16 252.456 344.592 252.456 341.92V334.96H250.728V342.064C250.728 343.632 249.832 344.576 248.36 344.576C246.872 344.576 245.992 343.632 245.992 342.064V334.96H244.264V342C244.264 344.608 245.704 346.16 248.36 346.16ZM257.575 346.16C259.303 346.16 260.663 345.264 260.663 343.632C260.663 342.128 259.367 341.664 258.119 341.36C257.079 341.088 255.911 340.864 256.007 340.16C256.055 339.616 256.727 339.28 257.575 339.344C258.503 339.408 259.127 339.856 259.543 340.368L260.359 339.376C259.815 338.704 258.839 338.064 257.431 338.064C255.863 338.064 254.471 338.816 254.471 340.4C254.471 341.936 255.847 342.352 257.111 342.64C258.183 342.88 259.031 343.056 259.031 343.792C259.031 344.512 258.215 344.784 257.367 344.752C256.263 344.72 255.511 344.112 255.143 343.552L254.199 344.64C254.775 345.488 256.167 346.16 257.575 346.16ZM269.053 346.16C271.197 346.16 272.781 344.752 272.781 342.128C272.781 339.504 271.197 338.096 269.053 338.096C266.909 338.096 265.341 339.504 265.341 342.128C265.341 344.752 266.909 346.16 269.053 346.16ZM269.069 344.736C267.837 344.736 267.005 343.936 267.005 342.128C267.005 340.32 267.837 339.52 269.069 339.52C270.285 339.52 271.117 340.32 271.117 342.128C271.117 343.936 270.285 344.736 269.069 344.736ZM274.464 346H276.128V341.392C276.128 340.224 276.912 339.456 278.032 339.456C278.928 339.456 279.488 339.968 279.488 341.152V346H281.152V340.896C281.152 339.152 280.128 338.032 278.512 338.032C277.424 338.032 276.64 338.528 276.192 339.28H276.112V338.192H274.464V346ZM283.292 346H284.972V334.96H283.292V346ZM286.669 348.608H288.141C289.165 348.608 289.837 348.096 290.205 347.04L293.373 338.192H291.581L290.029 342.976C289.917 343.328 289.805 343.84 289.805 344.144H289.709C289.709 343.824 289.597 343.328 289.485 342.992L287.949 338.192H286.141L288.989 345.744L288.685 346.592C288.525 347.024 288.205 347.2 287.709 347.2H286.669V348.608Z" fill="#8D9091"/>
<path d="M356.36 346.16C359 346.16 360.456 344.592 360.456 341.92V334.96H358.728V342.064C358.728 343.632 357.832 344.576 356.36 344.576C354.872 344.576 353.992 343.632 353.992 342.064V334.96H352.264V342C352.264 344.608 353.704 346.16 356.36 346.16ZM365.575 346.16C367.303 346.16 368.663 345.264 368.663 343.632C368.663 342.128 367.367 341.664 366.119 341.36C365.079 341.088 363.911 340.864 364.007 340.16C364.055 339.616 364.727 339.28 365.575 339.344C366.503 339.408 367.127 339.856 367.543 340.368L368.359 339.376C367.815 338.704 366.839 338.064 365.431 338.064C363.863 338.064 362.471 338.816 362.471 340.4C362.471 341.936 363.847 342.352 365.111 342.64C366.183 342.88 367.031 343.056 367.031 343.792C367.031 344.512 366.215 344.784 365.367 344.752C364.263 344.72 363.511 344.112 363.143 343.552L362.199 344.64C362.775 345.488 364.167 346.16 365.575 346.16ZM377.053 346.16C379.197 346.16 380.781 344.752 380.781 342.128C380.781 339.504 379.197 338.096 377.053 338.096C374.909 338.096 373.341 339.504 373.341 342.128C373.341 344.752 374.909 346.16 377.053 346.16ZM377.069 344.736C375.837 344.736 375.005 343.936 375.005 342.128C375.005 340.32 375.837 339.52 377.069 339.52C378.285 339.52 379.117 340.32 379.117 342.128C379.117 343.936 378.285 344.736 377.069 344.736ZM382.464 346H384.128V341.392C384.128 340.224 384.912 339.456 386.032 339.456C386.928 339.456 387.488 339.968 387.488 341.152V346H389.152V340.896C389.152 339.152 388.128 338.032 386.512 338.032C385.424 338.032 384.64 338.528 384.192 339.28H384.112V338.192H382.464V346ZM391.292 346H392.972V334.96H391.292V346ZM394.669 348.608H396.141C397.165 348.608 397.837 348.096 398.205 347.04L401.373 338.192H399.581L398.029 342.976C397.917 343.328 397.805 343.84 397.805 344.144H397.709C397.709 343.824 397.597 343.328 397.485 342.992L395.949 338.192H394.141L396.989 345.744L396.685 346.592C396.525 347.024 396.205 347.2 395.709 347.2H394.669V348.608Z" fill="#8D9091"/>
<path d="M450.36 346.16C453 346.16 454.456 344.592 454.456 341.92V334.96H452.728V342.064C452.728 343.632 451.832 344.576 450.36 344.576C448.872 344.576 447.992 343.632 447.992 342.064V334.96H446.264V342C446.264 344.608 447.704 346.16 450.36 346.16ZM459.575 346.16C461.303 346.16 462.663 345.264 462.663 343.632C462.663 342.128 461.367 341.664 460.119 341.36C459.079 341.088 457.911 340.864 458.007 340.16C458.055 339.616 458.727 339.28 459.575 339.344C460.503 339.408 461.127 339.856 461.543 340.368L462.359 339.376C461.815 338.704 460.839 338.064 459.431 338.064C457.863 338.064 456.471 338.816 456.471 340.4C456.471 341.936 457.847 342.352 459.111 342.64C460.183 342.88 461.031 343.056 461.031 343.792C461.031 344.512 460.215 344.784 459.367 344.752C458.263 344.72 457.511 344.112 457.143 343.552L456.199 344.64C456.775 345.488 458.167 346.16 459.575 346.16ZM471.053 346.16C473.197 346.16 474.781 344.752 474.781 342.128C474.781 339.504 473.197 338.096 471.053 338.096C468.909 338.096 467.341 339.504 467.341 342.128C467.341 344.752 468.909 346.16 471.053 346.16ZM471.069 344.736C469.837 344.736 469.005 343.936 469.005 342.128C469.005 340.32 469.837 339.52 471.069 339.52C472.285 339.52 473.117 340.32 473.117 342.128C473.117 343.936 472.285 344.736 471.069 344.736ZM476.464 346H478.128V341.392C478.128 340.224 478.912 339.456 480.032 339.456C480.928 339.456 481.488 339.968 481.488 341.152V346H483.152V340.896C483.152 339.152 482.128 338.032 480.512 338.032C479.424 338.032 478.64 338.528 478.192 339.28H478.112V338.192H476.464V346ZM485.292 346H486.972V334.96H485.292V346ZM488.669 348.608H490.141C491.165 348.608 491.837 348.096 492.205 347.04L495.373 338.192H493.581L492.029 342.976C491.917 343.328 491.805 343.84 491.805 344.144H491.709C491.709 343.824 491.597 343.328 491.485 342.992L489.949 338.192H488.141L490.989 345.744L490.685 346.592C490.525 347.024 490.205 347.2 489.709 347.2H488.669V348.608Z" fill="#8D9091"/>
</g>
<rect x="0.5" y="0.5" width="787" height="411" rx="7.5" stroke="#EFEFEF"/>
<defs>
<clipPath id="clip0_75_874">
<rect width="788" height="412" rx="8" fill="white"/>
</clipPath>
</defs>
</svg>
